<svg xmlns="http://www.w3.org/2000/svg"><style>:root svg:not(:target){display:none}</style><svg id="htmlacademy" viewBox="0 0 20 24"><path d="M10.111 0h-.074L0 .985V18.37L10.037 24 20 18.37V.984L10.111 0Zm8.476 8.516-8.55-4.786v-.07h-.074l-.075-.07v.07L1.413 8.516V2.182l8.55-.845 8.624.845v6.334Zm-8.624-3.73 8.55 4.715-3.346 1.83-5.279-2.956v.986l4.387 2.463-.67.352-3.717-2.111v.985l2.826 1.619-.595.351-2.23-1.266v.985l1.412.774-1.338.774-8.476-4.715 8.476-4.786Zm-8.55 5.842 8.475 4.786v.703L4.015 12.81v.986l5.948 3.378v.774L4.015 14.64v.986l5.948 3.378 6.022-3.449v-3.66l2.528-1.407v7.038l-8.55 4.856-8.55-4.786v-6.967Z" fill="currentColor"></path></svg><svg fill="none" id="logo" viewBox="0 0 135 60"><path d="M16.625 21.282s-2.15 1.29-2.63 3.413c-.478 2.122 0 4.447 0 4.447s-3.37 1.39-3.37 5.765c0 4.374 2.843 5.61 2.843 5.61s.034 5.163 3.216 7.947c3.183 2.784 6.522 2.798 6.522 2.798s1.736 3.673 6.846 3.673c5.109 0 6.846-3.673 6.846-3.673s3.459-.505 6.522-2.798c3.063-2.291 2.98-7.947 2.98-7.947s3.08-1.235 3.08-5.61-3.372-5.764-3.372-5.764.48-2.326 0-4.448c-.481-2.122-2.63-3.413-2.63-3.413" fill="#B22EC8"></path><path d="M46.207 27.857c0-8.933-7.242-11.449-16.174-11.449-8.931 0-16.173 2.517-16.173 11.449 0 8.931 7.242 16.173 16.173 16.173 8.932 0 16.174-7.242 16.174-16.173Z" fill="#B22EC8"></path><path d="M30.547 54.923s4.374-3.058 4.088-10.092c1.88-1.957 2.464-4.586.756-7.781 2.886-4.113 2.586-8.563-.867-11.937 1.423-2.053.678-3.831-.93-5.167 0 0 4.63 2.27 8.175-.976 0 0 7.453 5.358 4.339 10.172 0 0 8.228 5.561.291 11.375 0 0 1.16 8.863-9.3 10.709 0 0-2.753 3.117-6.551 3.697Z" fill="#6A107A"></path><path d="M46.483 9.385c-3.558 16.606-14.479 10.944-15.963 8.024-1.483-2.92-.05-14.548 15.963-8.025v.001Z" fill="currentColor"></path><path d="M13.62 9.385c3.558 16.606 14.48 10.944 15.963 8.024 1.484-2.92.05-14.548-15.963-8.025v.001Z" fill="currentColor"></path><path d="M46.483 9.385c-3.558 16.606-14.479 10.944-15.963 8.024-1.483-2.92-.05-14.548 15.963-8.025v.001Z" stroke="#000" stroke-width="2" stroke-miterlimit="10" stroke-linecap="round" stroke-linejoin="round"></path><path d="M37.977 12.745c-2.609 1.002-5.95 2.613-7.43 4.713M13.62 9.384c3.558 16.606 14.48 10.944 15.963 8.024 1.484-2.92.05-14.548-15.963-8.025v.001Z" stroke="#000" stroke-width="2" stroke-miterlimit="10" stroke-linecap="round" stroke-linejoin="round"></path><path d="M22.127 12.745c2.609 1.002 5.949 2.613 7.429 4.713m-12.931 3.824s-2.15 1.29-2.63 3.413c-.478 2.122 0 4.447 0 4.447s-3.37 1.39-3.37 5.765c0 4.374 2.843 5.61 2.843 5.61s.034 5.163 3.216 7.947c3.183 2.784 6.522 2.798 6.522 2.798s1.736 3.673 6.846 3.673c5.109 0 6.846-3.673 6.846-3.673s3.459-.505 6.522-2.798c3.063-2.291 2.98-7.947 2.98-7.947s3.08-1.235 3.08-5.61-3.372-5.764-3.372-5.764.48-2.326 0-4.448c-.481-2.122-2.63-3.413-2.63-3.413" stroke="#000" stroke-width="2" stroke-miterlimit="10" stroke-linecap="round" stroke-linejoin="round"></path><path d="M35.203 24.563s-2.18 2.305-4.87 2.305m-5.056-2.305s2.18 2.305 4.87 2.305m11.571 6.069c0 2.41-2.068 4.363-4.619 4.363m-4.796-4.363c0 2.41 2.068 4.363 4.619 4.363m-8.686-4.363c0 2.41-2.069 4.363-4.62 4.363m-4.797-4.363c0 2.41 2.069 4.363 4.62 4.363m11.482 7.585c-.87 1.157-2.633 1.95-4.668 1.95m-4.969-2.092c.83 1.234 2.653 2.091 4.768 2.091m-4.81-1.792c0 1.033-.641 1.965-1.665 2.62m11.394-2.62c0 1.127.76 2.133 1.95 2.79" stroke="#000" stroke-width="2" stroke-miterlimit="10" stroke-linecap="round" stroke-linejoin="round"></path><path d="M19.51 35.56c0 1.972-1.385 3.637-3.286 4.178m4.62-15.205c0 2.58-2.069 4.671-4.62 4.671m22.42-4.67c0 2.579 2.069 4.67 4.62 4.67m-2.222 6.356c0 1.883 1.264 3.487 3.034 4.1" stroke="#000" stroke-width="2" stroke-miterlimit="10" stroke-linecap="round" stroke-linejoin="round"></path><path d="M78.48 45.2c-.614 0-.974-.307-1.08-.92a22.123 22.123 0 0 1-.2-2.88c-.08-2.053-.147-4.187-.2-6.4-.027-2.24-.04-3.867-.04-4.88a3.444 3.444 0 0 0-1.4 1.12c-.32.453-.627 1.04-.92 1.76-.48 1.307-.72 2.6-.72 3.88v1c0 .16-.014.653-.04 1.48a26.88 26.88 0 0 1-.24 2.72c-.16 1.333-.827 2.333-2 3-.187.107-.427.16-.72.16-.347 0-.64-.08-.88-.24-.214-.187-.28-.44-.2-.76.053-.187.133-.32.24-.4.106-.08.253-.16.44-.24.213-.08.373-.16.48-.24.4-.373.6-.88.6-1.52l.04-3.36c.053-1.307.12-2.307.2-3 .08-.72.28-1.547.6-2.48.106-.347.36-.893.76-1.64.4-.773.693-1.267.88-1.48-1.414-.693-2.4-1.56-2.96-2.6-.534-1.04-.8-2.56-.8-4.56 0-1.573.28-3.12.84-4.64.56-1.493 1.48-2.44 2.76-2.84l1.76-.6c.24-.107.506-.16.8-.16.56 0 1.2.24 1.92.72.453.267.68.707.68 1.32-.16 2.24-.24 3.933-.24 5.08V30.48c0 2.827.026 4.96.08 6.4.026 1.093.066 2.067.12 2.92.053.853.093 1.56.12 2.12l.12 2.2v.24c0 .347-.054.573-.16.68-.107.107-.32.16-.64.16ZM76.8 16.16c-.134.053-.44.16-.92.32-.454.16-.854.347-1.2.56-.4.187-.774.587-1.12 1.2a8.954 8.954 0 0 0-.76 1.88c-.187.667-.267 1.173-.24 1.52l.08 1.76c0 .827.013 1.48.04 1.96.026.747.24 1.373.64 1.88.426.48 1.013.813 1.76 1 .293.08.626.2 1 .36.4.133.693.24.88.32l-.16-12.76Zm7.637 29.16c-.027-.107-.08-.293-.16-.56a2.057 2.057 0 0 1-.04-.68c.053-3.093.133-5.4.24-6.92.026-.56.04-1.387.04-2.48 0-1.973-.094-4.36-.28-7.16-.16-3.413-.24-6-.24-7.76 0-.4.16-.76.48-1.08.32-.32.706-.48 1.16-.48 1.52 0 2.84.12 3.96.36.533.107.88.293 1.04.56.16.24.213.653.16 1.24-.374.24-.76.36-1.16.36-.134 0-.334-.027-.6-.08-.24-.053-.88-.107-1.92-.16h-.08c-.374 0-.56.2-.56.6-.134 3.867-.2 6.067-.2 6.6.053 2.773.106 4.867.16 6.28 0 .187.013.413.04.68.026.267.026.493 0 .68-.08 1.227-.12 2.52-.12 3.88 0 2.213.04 3.76.12 4.64-.027.587-.12.987-.28 1.2-.16.24-.454.36-.88.36-.107 0-.4-.027-.88-.08Zm13.773.44c-.694 0-1.334-.227-1.92-.68-.587-.427-1.067-1.013-1.44-1.76-.773-1.627-1.253-3.4-1.44-5.32-.24-1.813-.36-3.56-.36-5.24 0-.32.013-.587.04-.8v-.72c0-.133-.014-.2-.04-.2v-.72l.04-2.8c.026-.853.133-2.213.32-4.08.133-1.28.44-2.52.92-3.72.186-.533.427-.933.72-1.2.293-.293.627-.44 1-.44 1.067 0 2.026.2 2.88.6a5.872 5.872 0 0 1 2.16 1.6c.533.667.987 1.493 1.36 2.48.373.96.64 1.987.8 3.08.16 1.12.24 2.307.24 3.56v.32c0 .827.013 1.573.04 2.24l.04 2.28c0 7.68-1.787 11.52-5.36 11.52Zm-.16-1.68c.48 0 .92-.187 1.32-.56.4-.4.707-.933.92-1.6.507-1.36.813-2.827.92-4.4.133-1.36.2-2.533.2-3.52 0-1.2-.093-2.773-.28-4.72-.16-2.053-.24-3.587-.24-4.6v-.72c-.053-1.013-.4-1.893-1.04-2.64-.613-.747-1.373-1.12-2.28-1.12-.907 0-1.507.52-1.8 1.56-.267.827-.4 1.893-.4 3.2 0 .507.013.933.04 1.28v1.08l-.08 1.84c-.053.56-.08 1.173-.08 1.84 0 1.44.04 2.867.12 4.28.106 2 .373 3.947.8 5.84.427 1.973 1.053 2.96 1.88 2.96Zm23.843 5.84c-.213.053-.373.08-.48.08-.32 0-.547-.2-.68-.6-.107-.32-.16-.72-.16-1.2l.04-2.76c0-.16-.013-.307-.04-.44l-.08-.4h-4.6c.267 0-.373.133-1.92.4-1.52.24-2.707.4-3.56.48l-1.8.16-2 .2v.88c.027.347.027.76 0 1.24v.2c0 .427-.107.747-.32.96-.213.213-.413.32-.6.32-.107 0-.267-.053-.48-.16-.48-.347-.747-.827-.8-1.44l-.12-2.92c-.053-1.04.373-1.56 1.28-1.56.507-.027.907-.16 1.2-.4.293-.24.64-.613 1.04-1.12.4-.533.707-1.12.92-1.76.24-.667.467-1.467.68-2.4.24-1.013.413-2 .52-2.96.107-.96.24-2.333.4-4.12.24-2.8.36-5.613.36-8.44l-.04-2.24c0-.507.147-.92.44-1.24.293-.347.693-.52 1.2-.52.16 0 .28.013.36.04 1.227.213 2.227.347 3 .4h.2c.347 0 .547-.067.6-.2.24-.32.533-.48.88-.48.24 0 .453.053.64.16.427.16.707.56.84 1.2l-.2 6.84c0 3.707.013 6.48.04 8.32 0 .96.027 2.427.08 4.4l.04 2.2c0 .213.013.413.04.6l.08.56c.533.053.933.08 1.2.08.213 0 .373-.013.48-.04a1.941 1.941 0 0 1 1.56.44c.48.347.72.8.72 1.36 0 .72-.053 1.8-.16 3.24 0 .373-.027.907-.08 1.6-.053.56-.293.907-.72 1.04Zm-11.52-6.36c1.493-.133 2.667-.253 3.52-.36a17.47 17.47 0 0 0 2.6-.6c.267-3.227.4-6.68.4-10.36 0-3.413-.133-7.16-.4-11.24-.693-.027-1.987-.093-3.88-.2l-.04 1.88a820.22 820.22 0 0 0-.44 9.2 33.292 33.292 0 0 1-1.56 8.96c-.053.16-.173.56-.36 1.2a4.444 4.444 0 0 1-.76 1.6l.92-.08Zm22.795 1.8c-.614 0-1.067-.093-1.36-.28-.294-.187-.44-.533-.44-1.04 0-.8-.134-2.16-.4-4.08l-.16-.84-3.96-.6c-.16.613-.387 1.853-.68 3.72-.16 1.307-.414 2.173-.76 2.6-.187.24-.454.36-.8.36a1.5 1.5 0 0 1-.88-.28c-.267-.213-.4-.467-.4-.76l.08-.2.04-.16c1.76-6.853 3.093-13.613 4-20.28 0-.107.013-.28.04-.52.026-.267.053-.64.08-1.12.08-.987.16-1.773.24-2.36.106-.587.266-1.027.48-1.32h1.36c.373 0 .693.093.96.28.266.16.4.4.4.72 0 2.027.28 5.04.84 9.04.533 4.107.8 6.987.8 8.64 0 .16.066.573.2 1.24.133.613.2 1.013.2 1.2 0 .187.133.987.4 2.4.24 1.28.36 2.107.36 2.48v.04c0 .587-.214.96-.64 1.12Zm-2.64-7.68c-.08-.4-.12-.893-.12-1.48 0-2.4-.214-5.467-.64-9.2l-.4-4.16c-1.147 6.267-1.934 11-2.36 14.2.4.267 1.573.48 3.52.64Z" fill="currentColor"></path></svg><svg fill="none" id="telegram" viewBox="0 0 32 32"><circle cx="16" cy="16" r="15.5" stroke="currentColor"></circle><path d="M23.156 7.812a1.242 1.242 0 0 0-1.257-.195L7.565 13.403a1.235 1.235 0 0 0 .062 2.307l3.093 1.074 1.676 5.54c.003.012.014.02.019.03a.39.39 0 0 0 .255.234c.008.003.013.01.021.012h.008c.062.014.126.01.186-.009.006-.001.013-.001.02-.004a.394.394 0 0 0 .153-.097c.005-.006.013-.007.017-.012l2.41-2.66 3.518 2.724c.214.167.477.257.748.257a1.24 1.24 0 0 0 1.215-.985L23.576 9a1.225 1.225 0 0 0-.42-1.189v.001Zm-9.885 10.024-.566 2.75-1.18-3.903 5.852-3.048-3.998 3.999a.4.4 0 0 0-.108.202Zm6.91 3.818a.432.432 0 0 1-.277.319.42.42 0 0 1-.411-.063l-3.81-2.95a.4.4 0 0 0-.541.047l-1.678 1.849.565-2.742 5.751-5.752a.4.4 0 0 0-.467-.637l-8.29 4.318-3.134-1.09a.42.42 0 0 1-.289-.393.426.426 0 0 1 .267-.414L22.2 8.359a.429.429 0 0 1 .446.069.418.418 0 0 1 .146.414l-2.61 12.812Z" fill="currentColor"></path></svg><svg fill="none" id="vkontakte" viewBox="0 0 32 32"><circle cx="16" cy="16" r="15.5" stroke="currentColor"></circle><g clip-path="url(#vkontakte_0)"><path d="M7.4 13.175c0-.502.343-.774 1.03-.813l2.644.015c.178 0 .296.074.355.222.272.74.577 1.378.914 1.915a23.16 23.16 0 0 0 1.323 1.857.242.242 0 0 0 .23.133.224.224 0 0 0 .196-.104l.053-.162.018-2.56c0-.177-.05-.295-.151-.355-.1-.059-.287-.103-.56-.133-.212-.03-.319-.138-.319-.325 0-.04.006-.07.018-.089.248-.64.958-.961 2.13-.961l.994-.015c.45 0 .822.093 1.118.28.296.188.444.484.444.888v3.358c.083.05.16.074.23.074.178 0 .332-.088.462-.266 1.302-1.519 2.006-2.534 2.112-3.047 0-.01.012-.035.036-.074.083-.148.219-.276.408-.385.19-.108.355-.182.497-.222.047-.02.1-.03.16-.03h2.751l.178.016c.236 0 .42.093.55.28a.51.51 0 0 1 .098.193c.017.069.03.138.035.207l.009.118v.104c-.083.404-.293.836-.63 1.294-.338.459-.767.954-1.287 1.487-.52.533-.846.883-.976 1.05-.107.119-.16.227-.16.326 0 .079.047.167.142.266l2.591 2.722c.142.158.213.33.213.518 0 .226-.106.414-.32.562a1.483 1.483 0 0 1-.762.251l-.302.015h-2.698a.656.656 0 0 0-.071.007.658.658 0 0 1-.071.008c-.26 0-.503-.094-.728-.281-.083-.08-.639-.661-1.668-1.746a.893.893 0 0 0-.249-.192c-.047.158-.11.384-.186.68-.077.296-.133.508-.169.636l-.053.252c-.119.345-.367.552-.746.621l-.248.015h-1.74c-.982 0-1.961-.375-2.937-1.124-.976-.75-1.855-1.719-2.636-2.907-.781-1.188-1.509-2.572-2.183-4.15a1.012 1.012 0 0 1-.09-.428Zm10.668 3.832a1.35 1.35 0 0 1-.675-.17c-.201-.114-.302-.269-.302-.466v-3.403c0-.197-.059-.337-.177-.421-.119-.084-.326-.126-.621-.126l-1.012.03c-.509 0-.894.074-1.154.222.52.207.781.542.781 1.005v2.604a.852.852 0 0 1-.355.614c-.213.163-.45.244-.71.244-.355 0-.627-.143-.816-.429-.923-1.164-1.61-2.268-2.06-3.314l-.16-.384-2.36-.015c-.154 0-.24.007-.257.022-.018.015-.027.057-.027.126 0 .089.012.182.036.281l.372.828c.994 2.14 2.074 3.827 3.24 5.06 1.165 1.232 2.31 1.849 3.434 1.849h1.775c.071 0 .125-.018.16-.052a.425.425 0 0 0 .089-.2l.035-.148.338-1.302c.094-.177.177-.295.248-.354a.698.698 0 0 1 .462-.163c.284 0 .573.143.87.429l1.508 1.597c.095.129.195.193.302.193h2.929c.355 0 .532-.074.532-.222a.252.252 0 0 0-.053-.148l-2.574-2.678c-.201-.207-.302-.429-.302-.665 0-.237.095-.464.284-.68.154-.198.453-.526.897-.985.444-.458.831-.887 1.162-1.287.332-.399.55-.761.657-1.087l.053-.192a.194.194 0 0 1-.017-.096.302.302 0 0 0-.018-.111h-2.787a.973.973 0 0 0-.426.266l-.106.281c-.296.68-1.071 1.73-2.326 3.151a1.358 1.358 0 0 1-.87.296Z" fill="currentColor"></path></g><defs><clipPath id="vkontakte_0"><path fill="#fff" transform="translate(6.4 8.8)" d="M0 0h19.2v15.086H0z"></path></clipPath></defs></svg><svg fill="none" id="youtube" viewBox="0 0 32 32"><circle cx="16" cy="16" r="15.5" stroke="currentColor"></circle><path d="m18.565 15.752-3.6-2.4a.3.3 0 0 0-.465.248v4.8a.292.292 0 0 0 .157.263.339.339 0 0 0 .143.037.27.27 0 0 0 .165-.052l3.6-2.4a.293.293 0 0 0 0-.496ZM15.1 17.837v-3.675L17.86 16l-2.76 1.837Zm8.587-6.127a1.53 1.53 0 0 0-.907-1.02c-2.535-.975-6.608-.96-6.78-.96-.173 0-4.245-.015-6.78.96a1.53 1.53 0 0 0-.908 1.02c-.187.727-.412 2.063-.412 4.29s.225 3.563.412 4.29a1.53 1.53 0 0 0 .908 1.02c2.535.975 6.607.96 6.78.96h.052c.518 0 4.32-.03 6.728-.96a1.53 1.53 0 0 0 .907-1.02c.188-.727.413-2.063.413-4.29s-.225-3.563-.413-4.29Zm-.585 8.43a.9.9 0 0 1-.54.607c-2.43.938-6.517.923-6.562.923-.045 0-4.133.015-6.563-.923a.9.9 0 0 1-.54-.607c-.18-.698-.397-1.98-.397-4.14 0-2.16.217-3.443.397-4.14a.9.9 0 0 1 .54-.607c2.43-.938 6.518-.923 6.563-.923.045 0 4.132-.015 6.562.922a.9.9 0 0 1 .54.608c.18.697.398 1.98.398 4.14 0 2.16-.218 3.442-.398 4.14Z" fill="currentColor"></path></svg></svg>