<svg width="52" height="52" viewBox="0 0 52 52" fill="none" xmlns="http://www.w3.org/2000/svg">
<path d="M14.4084 18.4441C14.4084 18.4441 12.545 19.5628 12.1298 21.4023C11.7145 23.2418 12.1298 25.2561 12.1298 25.2561C12.1298 25.2561 9.20764 26.4615 9.20764 30.2524C9.20764 34.0434 11.6726 35.1151 11.6726 35.1151C11.6726 35.1151 11.7015 39.5893 14.4596 42.0023C17.2178 44.4152 20.1118 44.4268 20.1118 44.4268C20.1118 44.4268 21.6169 47.6103 26.0448 47.6103C30.4728 47.6103 31.9786 44.4268 31.9786 44.4268C31.9786 44.4268 34.9758 43.9891 37.6307 42.0023C40.2856 40.0162 40.2126 35.1151 40.2126 35.1151C40.2126 35.1151 42.8827 34.0441 42.8827 30.2524C42.8827 26.4608 39.9599 25.2568 39.9599 25.2568C39.9599 25.2568 40.3766 23.2418 39.9599 21.4023C39.5431 19.5628 37.6813 18.4441 37.6813 18.4441" fill="#B22EC8"/>
<path d="M40.0457 24.1423C40.0457 16.4008 33.7696 14.2205 26.0289 14.2205C18.2881 14.2205 12.012 16.4016 12.012 24.1423C12.012 31.8831 18.2881 38.1592 26.0289 38.1592C33.7696 38.1592 40.0457 31.8831 40.0457 24.1423Z" fill="#B22EC8"/>
<path d="M26.4745 47.6002C26.4745 47.6002 30.2647 44.9497 30.017 38.8534C31.647 37.1576 32.1526 34.879 30.672 32.11C33.1731 28.5451 32.9131 24.6885 29.9209 21.7649C31.1538 19.9853 30.5088 18.4441 29.1149 17.2864C29.1149 17.2864 33.1269 19.2537 36.1999 16.4407C36.1999 16.4407 42.6588 21.0846 39.9598 25.2568C39.9598 25.2568 47.091 30.0762 40.2126 35.1152C40.2126 35.1152 41.2172 42.796 32.1526 44.3957C32.1526 44.3957 29.7664 47.0968 26.4745 47.6002V47.6002Z" fill="#6A107A"/>
<path d="M40.2855 8.13375C37.2016 22.5255 27.7369 17.6187 26.4506 15.088C25.1651 12.5566 26.4073 2.47947 40.2855 8.13302V8.13375Z" fill="#0F805D"/>
<path d="M11.804 8.13375C14.8878 22.5255 24.3526 17.6187 25.6388 15.088C26.9244 12.5566 25.6822 2.47947 11.804 8.13302V8.13375Z" fill="#0F805D"/>
<path d="M40.2856 8.13375C37.2017 22.5255 27.737 17.6187 26.4507 15.088C25.1652 12.5566 26.4074 2.47947 40.2856 8.13302V8.13375Z" stroke="black" stroke-width="2" stroke-miterlimit="10" stroke-linecap="round" stroke-linejoin="round"/>
<path d="M32.9132 11.0457C30.6526 11.9139 27.7572 13.3099 26.4746 15.1299M11.8041 8.13375C14.888 22.5255 24.3527 17.6187 25.639 15.088C26.9245 12.5566 25.6823 2.47947 11.8041 8.13302V8.13375Z" stroke="black" stroke-width="2" stroke-miterlimit="10" stroke-linecap="round" stroke-linejoin="round"/>
<path d="M19.1765 11.0457C21.4378 11.9138 24.3324 13.3098 25.6151 15.1298M14.4084 18.4441C14.4084 18.4441 12.545 19.5628 12.1298 21.4023C11.7145 23.2418 12.1298 25.2561 12.1298 25.2561C12.1298 25.2561 9.20764 26.4615 9.20764 30.2524C9.20764 34.0434 11.6726 35.1152 11.6726 35.1152C11.6726 35.1152 11.7015 39.5893 14.4596 42.0023C17.2178 44.4152 20.1118 44.4268 20.1118 44.4268C20.1118 44.4268 21.6169 47.6103 26.0448 47.6103C30.4728 47.6103 31.9786 44.4268 31.9786 44.4268C31.9786 44.4268 34.9758 43.9891 37.6307 42.0023C40.2856 40.0162 40.2126 35.1152 40.2126 35.1152C40.2126 35.1152 42.8827 34.0441 42.8827 30.2524C42.8827 26.4608 39.9599 25.2568 39.9599 25.2568C39.9599 25.2568 40.3766 23.2418 39.9599 21.4023C39.5431 19.5628 37.6813 18.4441 37.6813 18.4441" stroke="black" stroke-width="2" stroke-miterlimit="10" stroke-linecap="round" stroke-linejoin="round"/>
<path d="M30.5088 21.2876C30.5088 21.2876 28.6195 23.286 26.2882 23.286M21.9064 21.2876C21.9064 21.2876 23.7958 23.286 26.1271 23.286M36.1559 28.5452C36.1559 30.6339 34.3633 32.3268 32.1526 32.3268M27.9955 28.5452C27.9955 30.6339 29.788 32.3268 31.9988 32.3268M24.471 28.5452C24.471 30.6339 22.6785 32.3268 20.467 32.3268M16.3099 28.5452C16.3099 30.6339 18.1025 32.3268 20.3139 32.3268M30.2647 38.9004C29.5107 39.9036 27.9825 40.5897 26.2195 40.5897M21.9129 38.7777C22.6315 39.8465 24.2118 40.5897 26.0455 40.5897M21.8761 39.0362C21.8761 39.9318 21.3207 40.7399 20.4331 41.3069M30.308 39.0362C30.308 40.0134 30.9674 40.8851 31.9988 41.4542" stroke="black" stroke-width="2" stroke-miterlimit="10" stroke-linecap="round" stroke-linejoin="round"/>
<path d="M16.908 30.8187C16.908 32.5274 15.7084 33.9712 14.061 34.4399M18.0643 21.2622C18.0643 23.4975 16.2717 25.3103 14.0603 25.3103M33.4917 21.2622C33.4917 23.4975 35.2842 25.3103 37.4957 25.3103M35.5702 30.8187C35.5702 32.4509 36.6651 33.8412 38.1991 34.372" stroke="black" stroke-width="2" stroke-miterlimit="10" stroke-linecap="round" stroke-linejoin="round"/>
</svg>
