<svg width="135" height="60" viewBox="0 0 135 60" fill="none" xmlns="http://www.w3.org/2000/svg">
<path d="M16.625 21.2816C16.625 21.2816 14.475 22.5725 13.9958 24.695C13.5166 26.8175 13.9958 29.1416 13.9958 29.1416C13.9958 29.1416 10.6241 30.5325 10.6241 34.9066C10.6241 39.2808 13.4683 40.5174 13.4683 40.5174C13.4683 40.5174 13.5016 45.68 16.6841 48.4641C19.8666 51.2483 23.2058 51.2616 23.2058 51.2616C23.2058 51.2616 24.9425 54.9349 30.0516 54.9349C35.1608 54.9349 36.8983 51.2616 36.8983 51.2616C36.8983 51.2616 40.3566 50.7566 43.42 48.4641C46.4833 46.1725 46.3991 40.5174 46.3991 40.5174C46.3991 40.5174 49.48 39.2816 49.48 34.9066C49.48 30.5316 46.1075 29.1425 46.1075 29.1425C46.1075 29.1425 46.5883 26.8175 46.1075 24.695C45.6266 22.5725 43.4783 21.2816 43.4783 21.2816" fill="#B22EC8"/>
<path d="M46.2067 27.8567C46.2067 18.9242 38.965 16.4083 30.0333 16.4083C21.1017 16.4083 13.86 18.925 13.86 27.8567C13.86 36.7883 21.1017 44.03 30.0333 44.03C38.965 44.03 46.2067 36.7883 46.2067 27.8567Z" fill="#B22EC8"/>
<path d="M30.5475 54.9233C30.5475 54.9233 34.9208 51.865 34.635 44.8308C36.5158 42.8741 37.0992 40.245 35.3908 37.05C38.2767 32.9366 37.9767 28.4866 34.5242 25.1133C35.9467 23.06 35.2025 21.2816 33.5942 19.9458C33.5942 19.9458 38.2233 22.2158 41.7692 18.97C41.7692 18.97 49.2217 24.3283 46.1075 29.1425C46.1075 29.1425 54.3358 34.7033 46.3992 40.5175C46.3992 40.5175 47.5583 49.38 37.0992 51.2258C37.0992 51.2258 34.3458 54.3425 30.5475 54.9233Z" fill="#6A107A"/>
<path d="M46.4833 9.38497C42.925 25.9908 32.0042 20.3291 30.52 17.4091C29.0367 14.4883 30.47 2.8608 46.4833 9.38414V9.38497Z" fill="currentColor"/>
<path d="M13.62 9.38497C17.1783 25.9908 28.0992 20.3291 29.5833 17.4091C31.0667 14.4883 29.6333 2.8608 13.62 9.38414V9.38497Z" fill="currentColor"/>
<path d="M46.4833 9.38497C42.925 25.9908 32.0042 20.3291 30.52 17.4091C29.0367 14.4883 30.47 2.8608 46.4833 9.38414V9.38497Z" stroke="black" stroke-width="2" stroke-miterlimit="10" stroke-linecap="round" stroke-linejoin="round"/>
<path d="M37.9767 12.745C35.3683 13.7466 32.0275 15.3575 30.5475 17.4575M13.62 9.38497C17.1783 25.9908 28.0992 20.3291 29.5833 17.4091C31.0667 14.4883 29.6333 2.8608 13.62 9.38414V9.38497Z" stroke="black" stroke-width="2" stroke-miterlimit="10" stroke-linecap="round" stroke-linejoin="round"/>
<path d="M22.1266 12.745C24.7358 13.7467 28.0758 15.3575 29.5558 17.4575M16.625 21.2817C16.625 21.2817 14.475 22.5725 13.9958 24.695C13.5166 26.8175 13.9958 29.1417 13.9958 29.1417C13.9958 29.1417 10.6241 30.5325 10.6241 34.9067C10.6241 39.2808 13.4683 40.5175 13.4683 40.5175C13.4683 40.5175 13.5016 45.68 16.6841 48.4642C19.8666 51.2483 23.2058 51.2617 23.2058 51.2617C23.2058 51.2617 24.9425 54.935 30.0516 54.935C35.1608 54.935 36.8983 51.2617 36.8983 51.2617C36.8983 51.2617 40.3566 50.7567 43.42 48.4642C46.4833 46.1725 46.3991 40.5175 46.3991 40.5175C46.3991 40.5175 49.48 39.2817 49.48 34.9067C49.48 30.5317 46.1075 29.1425 46.1075 29.1425C46.1075 29.1425 46.5883 26.8175 46.1075 24.695C45.6266 22.5725 43.4783 21.2817 43.4783 21.2817" stroke="black" stroke-width="2" stroke-miterlimit="10" stroke-linecap="round" stroke-linejoin="round"/>
<path d="M35.2025 24.5625C35.2025 24.5625 33.0225 26.8683 30.3325 26.8683M25.2767 24.5625C25.2767 24.5625 27.4567 26.8683 30.1467 26.8683M41.7183 32.9367C41.7183 35.3467 39.65 37.3 37.0992 37.3M32.3025 32.9367C32.3025 35.3467 34.3708 37.3 36.9217 37.3M28.2358 32.9367C28.2358 35.3467 26.1675 37.3 23.6158 37.3M18.8192 32.9367C18.8192 35.3467 20.8875 37.3 23.4392 37.3M34.9208 44.885C34.0508 46.0425 32.2875 46.8342 30.2533 46.8342M25.2842 44.7433C26.1133 45.9767 27.9367 46.8342 30.0525 46.8342M25.2417 45.0417C25.2417 46.075 24.6008 47.0075 23.5767 47.6617M34.9708 45.0417C34.9708 46.1692 35.7317 47.175 36.9217 47.8317" stroke="black" stroke-width="2" stroke-miterlimit="10" stroke-linecap="round" stroke-linejoin="round"/>
<path d="M19.5092 35.56C19.5092 37.5317 18.125 39.1975 16.2242 39.7383M20.8433 24.5333C20.8433 27.1125 18.775 29.2042 16.2233 29.2042M38.6442 24.5333C38.6442 27.1125 40.7125 29.2042 43.2642 29.2042M41.0425 35.56C41.0425 37.4433 42.3058 39.0475 44.0758 39.66" stroke="black" stroke-width="2" stroke-miterlimit="10" stroke-linecap="round" stroke-linejoin="round"/>
<path d="M78.4792 45.2C77.8659 45.2 77.5059 44.8933 77.3992 44.28C77.2659 43.2667 77.1992 42.3067 77.1992 41.4C77.1192 39.3467 77.0526 37.2133 76.9992 35C76.9726 32.76 76.9592 31.1333 76.9592 30.12C76.3726 30.3867 75.9059 30.76 75.5592 31.24C75.2392 31.6933 74.9326 32.28 74.6392 33C74.1592 34.3067 73.9192 35.6 73.9192 36.88V37.88C73.9192 38.04 73.9059 38.5333 73.8792 39.36C73.8526 40.1867 73.7726 41.0933 73.6392 42.08C73.4792 43.4133 72.8126 44.4133 71.6392 45.08C71.4526 45.1867 71.2126 45.24 70.9192 45.24C70.5726 45.24 70.2792 45.16 70.0392 45C69.8259 44.8133 69.7592 44.56 69.8392 44.24C69.8926 44.0533 69.9726 43.92 70.0792 43.84C70.1859 43.76 70.3326 43.68 70.5192 43.6C70.7326 43.52 70.8926 43.44 70.9992 43.36C71.3992 42.9867 71.5992 42.48 71.5992 41.84L71.6392 38.48C71.6926 37.1733 71.7592 36.1733 71.8392 35.48C71.9192 34.76 72.1192 33.9333 72.4392 33C72.5459 32.6533 72.7992 32.1067 73.1992 31.36C73.5992 30.5867 73.8926 30.0933 74.0792 29.88C72.6659 29.1867 71.6792 28.32 71.1192 27.28C70.5859 26.24 70.3192 24.72 70.3192 22.72C70.3192 21.1467 70.5992 19.6 71.1592 18.08C71.7192 16.5867 72.6392 15.64 73.9192 15.24L75.6792 14.64C75.9192 14.5333 76.1859 14.48 76.4792 14.48C77.0392 14.48 77.6792 14.72 78.3992 15.2C78.8526 15.4667 79.0792 15.9067 79.0792 16.52C78.9192 18.76 78.8392 20.4533 78.8392 21.6V23.08V26.36V30.48C78.8392 33.3067 78.8659 35.44 78.9192 36.88C78.9459 37.9733 78.9859 38.9467 79.0392 39.8C79.0926 40.6533 79.1326 41.36 79.1592 41.92L79.2792 44.12V44.36C79.2792 44.7067 79.2259 44.9333 79.1192 45.04C79.0126 45.1467 78.7992 45.2 78.4792 45.2ZM76.7992 16.16C76.6659 16.2133 76.3592 16.32 75.8792 16.48C75.4259 16.64 75.0259 16.8267 74.6792 17.04C74.2792 17.2267 73.9059 17.6267 73.5592 18.24C73.2392 18.8267 72.9859 19.4533 72.7992 20.12C72.6126 20.7867 72.5326 21.2933 72.5592 21.64L72.6392 23.4C72.6392 24.2267 72.6526 24.88 72.6792 25.36C72.7059 26.1067 72.9192 26.7333 73.3192 27.24C73.7459 27.72 74.3326 28.0533 75.0792 28.24C75.3726 28.32 75.7059 28.44 76.0792 28.6C76.4792 28.7333 76.7726 28.84 76.9592 28.92L76.7992 16.16ZM84.4367 45.32C84.4101 45.2133 84.3567 45.0267 84.2767 44.76C84.2234 44.4933 84.2101 44.2667 84.2367 44.08C84.2901 40.9867 84.3701 38.68 84.4767 37.16C84.5034 36.6 84.5167 35.7733 84.5167 34.68C84.5167 32.7067 84.4234 30.32 84.2367 27.52C84.0767 24.1067 83.9967 21.52 83.9967 19.76C83.9967 19.36 84.1567 19 84.4767 18.68C84.7967 18.36 85.1834 18.2 85.6367 18.2C87.1567 18.2 88.4767 18.32 89.5967 18.56C90.1301 18.6667 90.4767 18.8533 90.6367 19.12C90.7967 19.36 90.8501 19.7733 90.7967 20.36C90.4234 20.6 90.0367 20.72 89.6367 20.72C89.5034 20.72 89.3034 20.6933 89.0367 20.64C88.7967 20.5867 88.1567 20.5333 87.1167 20.48H87.0367C86.6634 20.48 86.4767 20.68 86.4767 21.08C86.3434 24.9467 86.2767 27.1467 86.2767 27.68C86.3301 30.4533 86.3834 32.5467 86.4367 33.96C86.4367 34.1467 86.4501 34.3733 86.4767 34.64C86.5034 34.9067 86.5034 35.1333 86.4767 35.32C86.3967 36.5467 86.3567 37.84 86.3567 39.2C86.3567 41.4133 86.3967 42.96 86.4767 43.84C86.4501 44.4267 86.3567 44.8267 86.1967 45.04C86.0367 45.28 85.7434 45.4 85.3167 45.4C85.2101 45.4 84.9167 45.3733 84.4367 45.32ZM98.2098 45.76C97.5165 45.76 96.8765 45.5333 96.2898 45.08C95.7032 44.6533 95.2232 44.0667 94.8498 43.32C94.0765 41.6933 93.5965 39.92 93.4098 38C93.1698 36.1867 93.0498 34.44 93.0498 32.76C93.0498 32.44 93.0632 32.1733 93.0898 31.96V31.24C93.0898 31.1067 93.0765 31.04 93.0498 31.04V30.32L93.0898 27.52C93.1165 26.6667 93.2232 25.3067 93.4098 23.44C93.5432 22.16 93.8498 20.92 94.3298 19.72C94.5165 19.1867 94.7565 18.7867 95.0498 18.52C95.3432 18.2267 95.6765 18.08 96.0498 18.08C97.1165 18.08 98.0765 18.28 98.9298 18.68C99.7832 19.0533 100.503 19.5867 101.09 20.28C101.623 20.9467 102.077 21.7733 102.45 22.76C102.823 23.72 103.09 24.7467 103.25 25.84C103.41 26.96 103.49 28.1467 103.49 29.4V29.72C103.49 30.5467 103.503 31.2933 103.53 31.96L103.57 34.24C103.57 41.92 101.783 45.76 98.2098 45.76ZM98.0498 44.08C98.5298 44.08 98.9698 43.8933 99.3698 43.52C99.7698 43.12 100.077 42.5867 100.29 41.92C100.797 40.56 101.103 39.0933 101.21 37.52C101.343 36.16 101.41 34.9867 101.41 34C101.41 32.8 101.317 31.2267 101.13 29.28C100.97 27.2267 100.89 25.6933 100.89 24.68V23.96C100.837 22.9467 100.49 22.0667 99.8498 21.32C99.2365 20.5733 98.4765 20.2 97.5698 20.2C96.6632 20.2 96.0632 20.72 95.7698 21.76C95.5032 22.5867 95.3698 23.6533 95.3698 24.96C95.3698 25.4667 95.3832 25.8933 95.4098 26.24V27.32L95.3298 29.16C95.2765 29.72 95.2498 30.3333 95.2498 31C95.2498 32.44 95.2898 33.8667 95.3698 35.28C95.4765 37.28 95.7432 39.2267 96.1698 41.12C96.5965 43.0933 97.2232 44.08 98.0498 44.08ZM121.893 49.92C121.68 49.9733 121.52 50 121.413 50C121.093 50 120.866 49.8 120.733 49.4C120.626 49.08 120.573 48.68 120.573 48.2L120.613 45.44C120.613 45.28 120.6 45.1333 120.573 45C120.546 44.8667 120.52 44.7333 120.493 44.6H115.893C116.16 44.6 115.52 44.7333 113.973 45C112.453 45.24 111.266 45.4 110.413 45.48L108.613 45.64L106.613 45.84C106.613 46.08 106.613 46.3733 106.613 46.72C106.64 47.0667 106.64 47.48 106.613 47.96V48.16C106.613 48.5867 106.506 48.9067 106.293 49.12C106.08 49.3333 105.88 49.44 105.693 49.44C105.586 49.44 105.426 49.3867 105.213 49.28C104.733 48.9333 104.466 48.4533 104.413 47.84L104.293 44.92C104.24 43.88 104.666 43.36 105.573 43.36C106.08 43.3333 106.48 43.2 106.773 42.96C107.066 42.72 107.413 42.3467 107.813 41.84C108.213 41.3067 108.52 40.72 108.733 40.08C108.973 39.4133 109.2 38.6133 109.413 37.68C109.653 36.6667 109.826 35.68 109.933 34.72C110.04 33.76 110.173 32.3867 110.333 30.6C110.573 27.8 110.693 24.9867 110.693 22.16L110.653 19.92C110.653 19.4133 110.8 19 111.093 18.68C111.386 18.3333 111.786 18.16 112.293 18.16C112.453 18.16 112.573 18.1733 112.653 18.2C113.88 18.4133 114.88 18.5467 115.653 18.6H115.853C116.2 18.6 116.4 18.5333 116.453 18.4C116.693 18.08 116.986 17.92 117.333 17.92C117.573 17.92 117.786 17.9733 117.973 18.08C118.4 18.24 118.68 18.64 118.813 19.28L118.613 26.12C118.613 29.8267 118.626 32.6 118.653 34.44C118.653 35.4 118.68 36.8667 118.733 38.84L118.773 41.04C118.773 41.2533 118.786 41.4533 118.813 41.64C118.84 41.8267 118.866 42.0133 118.893 42.2C119.426 42.2533 119.826 42.28 120.093 42.28C120.306 42.28 120.466 42.2667 120.573 42.24C121.16 42.16 121.68 42.3067 122.133 42.68C122.613 43.0267 122.853 43.48 122.853 44.04C122.853 44.76 122.8 45.84 122.693 47.28C122.693 47.6533 122.666 48.1867 122.613 48.88C122.56 49.44 122.32 49.7867 121.893 49.92ZM110.373 43.56C111.866 43.4267 113.04 43.3067 113.893 43.2C114.773 43.0667 115.64 42.8667 116.493 42.6C116.76 39.3733 116.893 35.92 116.893 32.24C116.893 28.8267 116.76 25.08 116.493 21C115.8 20.9733 114.506 20.9067 112.613 20.8L112.573 22.68C112.36 26.7867 112.213 29.8533 112.133 31.88C112.026 34.92 111.506 37.9067 110.573 40.84C110.52 41 110.4 41.4 110.213 42.04C110.053 42.6533 109.8 43.1867 109.453 43.64L110.373 43.56ZM133.168 45.36C132.554 45.36 132.101 45.2667 131.808 45.08C131.514 44.8933 131.368 44.5467 131.368 44.04C131.368 43.24 131.234 41.88 130.968 39.96L130.808 39.12L126.848 38.52C126.688 39.1333 126.461 40.3733 126.168 42.24C126.008 43.5467 125.754 44.4133 125.408 44.84C125.221 45.08 124.954 45.2 124.608 45.2C124.288 45.2 123.994 45.1067 123.728 44.92C123.461 44.7067 123.328 44.4533 123.328 44.16L123.408 43.96L123.448 43.8C125.208 36.9467 126.541 30.1867 127.448 23.52C127.448 23.4133 127.461 23.24 127.488 23C127.514 22.7333 127.541 22.36 127.568 21.88C127.648 20.8933 127.728 20.1067 127.808 19.52C127.914 18.9333 128.074 18.4933 128.288 18.2H129.648C130.021 18.2 130.341 18.2933 130.608 18.48C130.874 18.64 131.008 18.88 131.008 19.2C131.008 21.2267 131.288 24.24 131.848 28.24C132.381 32.3467 132.648 35.2267 132.648 36.88C132.648 37.04 132.714 37.4533 132.848 38.12C132.981 38.7333 133.048 39.1333 133.048 39.32C133.048 39.5067 133.181 40.3067 133.448 41.72C133.688 43 133.808 43.8267 133.808 44.2V44.24C133.808 44.8267 133.594 45.2 133.168 45.36ZM130.528 37.68C130.448 37.28 130.408 36.7867 130.408 36.2C130.408 33.8 130.194 30.7333 129.768 27L129.368 22.84C128.221 29.1067 127.434 33.84 127.008 37.04C127.408 37.3067 128.581 37.52 130.528 37.68Z" fill="currentColor"/>
</svg>
